# xmcd
#
# Track frame offsets:
#	150
#	9850
#	22125
#	32100
#	45675
#	56625
#	66750
#	76200
#	85650
#	97650
#	106875
#	125550
#	138000
#	149025
#	162975
#	173850
#	186825
#	197025
#	208350
#	222150
#	231925
#	240300
#	250875
#	264450
#
# Disc length: 3680
#
# Revision: 7
# Processed by: cddbd v1.5.1PL0 Copyright (c) Steve Scherf et al.
# Submitted via: ExactAudioCopy v0.90b4
# Normalized: r5:TDELIM( - ),TSWAP
#
DISCID=4e0e5e18
DTITLE=Time Life Music (Various Artist) - Country USA - 1964
DYEAR=1900
DGENRE=Country
TTITLE0=George Jones - The Race Is On
TTITLE1=Johnny Cash - Understand Your Man
TTITLE2=Jean Shepard - Second Fiddle (To An Old Guitar)
TTITLE3=Stonewall Jackson - Don't Be Angry
TTITLE4=Buck Owens - Together Again
TTITLE5=Sonny James - You're The Only World I Know
TTITLE6=Roger Miller - Chug-A-Lug
TTITLE7=Loretta Lynn - Happy Birthday
TTITLE8=Hank Williams Jr. - Long Gone Lonesome Blues
TTITLE9=Porter Wagoner - Sorrow On The Rocks
TTITLE10=Johnny Cash - The Ballad Of Ira Hayes
TTITLE11=Bobby Bare - Four Strong Winds
TTITLE12=Buck Owens - My Heart Skips A Beat
TTITLE13=Lefty Frizzell - Saginaw, Michigan
TTITLE14=Jim Reeves - I Guess I'm Crazy
TTITLE15=Billy Walker - Cross The Brazos At Waco
TTITLE16=George Jones - Your Heart Turned Left (And I Was On TheRight)
TTITLE17=Ray Price - Burning Memories
TTITLE18=Johnny Cash - It Ain't Me, Babe
TTITLE19=Buck Owens - I Don't Care (Just As Long As You Love Me)
TTITLE20=Roger Miller - Dang Me
TTITLE21=Connie Smith - Once A Day
TTITLE22=Jimmy Martin - Widow Maker
TTITLE23=Jim Reeves - Welcome To My World
EXTD=
EXTT0=George Jones
EXTT1=Johnny Cash
EXTT2=Jean Shepard
EXTT3=Stonewall Jackson
EXTT4=Buck Owens
EXTT5=Sonny James
EXTT6=Roger Miller
EXTT7=Loretta Lynn
EXTT8=Hank Williams Jr.
EXTT9=Porter Wagoner
EXTT10=Johnny Cash
EXTT11=Bobby Bare
EXTT12=Buck Owens
EXTT13=Lefty Frizzell
EXTT14=Jim Reeves
EXTT15=Billy Walker
EXTT16=George Jones
EXTT17=Ray Price
EXTT18=Johnny Cash
EXTT19=Buck Owens
EXTT20=Roger Miller
EXTT21=Connie Smith
EXTT22=Jimmy Martin
EXTT23=Jim Reeves
PLAYORDER=
